:FULLY-SPECIFIED
:FORCE-ALL-JOINTS-BE-3DOF
:DEGREES
1
root 6.24314 16.836 -28.1378 9.0217 -2.52979 -3.05774
lfemur -20.3712 2.30257 -19.9954
ltibia 35.927 0 0
lfoot -38.654 3.93715 0
ltoes 38.9541 0 0
rfemur -19.4747 0.22019 19.5256
rtibia 36.0342 0 0
rfoot -30.3779 -10.4967 0
rtoes 21.4483 0 0
lowerback -2.05144 3.66971 -5.03766
upperback -2.66728 5.00355 3.49279
thorax -2.36397 2.67023 6.42441
lowerneck -9.84699 -2.36864 1.94815
upperneck -1.37933 -3.32542 -1.65382
head 1.16433 -1.69823 -0.975663
lclavicle -1.65488e-14 -3.69739e-14 0
lhumerus -41.7253 -10.8128 99.8312
lradius 34.5094 0 0
lwrist 2.17521 0 0
lhand -10.5949 9.65639 0
lfingers 7.12502 0 0
lthumb 15.4107 39.062 0
rclavicle -1.65488e-14 -3.69739e-14 0
rhumerus -43.273 -4.86223 -84.2703
rradius 40.4763 0 0
rwrist 9.89469 0 0
rhand -23.7965 -22.476 0
rfingers 7.12502 0 0
rthumb 2.67393 -52.439 0
2
root 6.2349 16.8387 -28.1346 9.039 -2.51662 -3.04517
lfemur -20.3602 2.28804 -19.9896
ltibia 35.8812 0 0
lfoot -38.6053 3.94288 0
ltoes 38.9224 0 0
rfemur -19.4088 0.374145 19.5273
rtibia 35.9085 0 0
rfoot -30.317 -10.6763 0
rtoes 21.3394 0 0
lowerback -2.11888 3.64601 -4.96386
upperback -2.65288 4.97123 3.44852
thorax -2.29806 2.65034 6.34166
lowerneck -9.84344 -2.35452 1.95661
upperneck -1.40396 -3.30806 -1.61606
head 1.15645 -1.68897 -0.964246
lclavicle -1.40999e-14 -3.55415e-14 0
lhumerus -41.7242 -10.8322 99.7687
lradius 34.5501 0 0
lwrist 2.21921 0 0
lhand -10.6094 9.5401 0
lfingers 7.12502 0 0
lthumb 15.3967 38.9468 0
rclavicle -1.40999e-14 -3.55415e-14 0
rhumerus -43.222 -4.8668 -84.35
rradius 40.4597 0 0
rwrist 9.91386 0 0
rhand -23.8819 -22.4064 0
rfingers 7.12502 0 0
rthumb 2.59149 -52.3698 0
3
root 6.22667 16.8415 -28.1314 9.05932 -2.50131 -3.03076
lfemur -20.3459 2.27091 -19.9825
ltibia 35.8255 0 0
lfoot -38.5483 3.94981 0
ltoes 38.8878 0 0
rfemur -19.3281 0.562628 19.5296
rtibia 35.7559 0 0
rfoot -30.244 -10.8942 0
rtoes 21.217 0 0
lowerback -2.19961 3.61778 -4.87691
upperback -2.63587 4.93284 3.3971
thorax -2.21944 2.62662 6.24507
lowerneck -9.83943 -2.33773 1.96583
upperneck -1.43302 -3.28738 -1.57222
head 1.14719 -1.67792 -0.950851
lclavicle -1.09702e-14 -3.37679e-14 0
lhumerus -41.7232 -10.8533 99.6938
lradius 34.5927 0 0
lwrist 2.26843 0 0
lhand -10.626 9.40069 0
lfingers 7.12502 0 0
lthumb 15.3808 38.8086 0
rclavicle -1.09702e-14 -3.37679e-14 0
rhumerus -43.1614 -4.87244 -84.4435
rradius 40.4407 0 0
rwrist 9.93701 0 0
rhand -23.987 -22.3202 0
rfingers 7.12502 0 0
rthumb 2.48992 -52.2842 0
4
root 6.21843 16.8442 -28.1283 9.08243 -2.48401 -3.01463
lfemur -20.3288 2.2514 -19.9742
ltibia 35.761 0 0
lfoot -38.4836 3.95784 0
ltoes 38.8502 0 0
rfemur -19.2341 0.782036 19.5324
rtibia 35.5791 0 0
rfoot -30.1599 -11.1466 0
rtoes 21.0817 0 0
lowerback -2.29236 3.58543 -4.77794
upperback -2.61648 4.88892 3.33909
thorax -2.12928 2.59943 6.13573
lowerneck -9.83498 -2.31852 1.9758
upperneck -1.46611 -3.26367 -1.52276
head 1.13667 -1.66526 -0.935645
lclavicle -7.23993e-15 -3.16902e-14 0
lhumerus -41.7224 -10.8762 99.6079
lradius 34.6377 0 0
lwrist 2.32266 0 0
lhand -10.6445 9.24035 0
lfingers 7.12502 0 0
lthumb 15.3629 38.6496 0
rclavicle -7.23993e-15 -3.16902e-14 0
rhumerus -43.092 -4.87904 -84.5495
rradius 40.4196 0 0
rwrist 9.96374 0 0
rhand -24.1099 -22.2191 0
rfingers 7.12502 0 0
rthumb 2.37126 -52.1837 0
5
root 6.2102 16.847 -28.1251 9.10806 -2.46491 -2.9969
lfemur -20.3092 2.22974 -19.9648
ltibia 35.6886 0 0
lfoot -38.4119 3.96683 0
ltoes 38.8097 0 0
rfemur -19.1285 1.02876 19.5357
rtibia 35.3808 0 0
rfoot -30.0659 -11.4294 0
rtoes 20.9342 0 0
lowerback -2.39587 3.54939 -4.66808
upperback -2.59494 4.84003 3.27504
thorax -2.02877 2.56912 6.01477
lowerneck -9.83011 -2.29713 1.98652
upperneck -1.50285 -3.23724 -1.46816
head 1.125 -1.65115 -0.918791
lclavicle -2.9897e-15 -2.93453e-14 0
lhumerus -41.7217 -10.9008 99.5119
lradius 34.6852 0 0
lwrist 2.38168 0 0
lhand -10.6649 9.06129 0
lfingers 7.12502 0 0
lthumb 15.3433 38.472 0
rclavicle -2.9897e-15 -2.93453e-14 0
rhumerus -43.0148 -4.88648 -84.667
rradius 40.3965 0 0
rwrist 9.99366 0 0
rhand -24.2483 -22.105 0
rfingers 7.12502 0 0
rthumb 2.23756 -52.0704 0
6
root 6.20196 16.8497 -28.1219 9.13595 -2.44415 -2.9777
lfemur -20.2875 2.20615 -19.9545
ltibia 35.6093 0 0
lfoot -38.3339 3.97666 0
ltoes 38.7662 0 0
rfemur -19.0127 1.29921 19.5393
rtibia 35.1638 0 0
rfoot -29.9633 -11.739 0
rtoes 20.7752 0 0
lowerback -2.50891 3.51006 -4.54847
upperback -2.57147 4.78672 3.20548
thorax -1.91908 2.53604 5.88329
lowerneck -9.82486 -2.2738 1.99801
upperneck -1.54287 -3.2084 -1.40888
head 1.1123 -1.63575 -0.900454
lclavicle 1.7001e-15 -2.67704e-14 0
lhumerus -41.721 -10.9272 99.4072
lradius 34.7357 0 0
lwrist 2.44529 0 0
lhand -10.6869 8.86571 0
lfingers 7.12502 0 0
lthumb 15.3221 38.278 0
rclavicle 1.7001e-15 -2.67704e-14 0
rhumerus -42.9305 -4.89465 -84.7948
rradius 40.3716 0 0
rwrist 10.0264 0 0
rhand -24.4002 -21.9798 0
rfingers 7.12502 0 0
rthumb 2.09086 -51.9459 0
7
root 6.19373 16.8525 -28.1187 9.16586 -2.42191 -2.95714
lfemur -20.2641 2.18086 -19.9434
ltibia 35.5242 0 0
lfoot -38.2503 3.98722 0
ltoes 38.7198 0 0
rfemur -18.8883 1.58977 19.5432
rtibia 34.9308 0 0
rfoot -29.8531 -12.0715 0
rtoes 20.6051 0 0
lowerback -2.63021 3.46788 -4.42023
upperback -2.5463 4.72954 3.13097
thorax -1.80141 2.50056 5.7424
lowerneck -9.81924 -2.24878 2.01027
upperneck -1.58578 -3.17747 -1.34537
head 1.09869 -1.61922 -0.8808
lclavicle 6.74904e-15 -2.40025e-14 0
lhumerus -41.7203 -10.9554 99.2948
lradius 34.7893 0 0
lwrist 2.51325 0 0
lhand -10.7104 8.65583 0
lfingers 7.12502 0 0
lthumb 15.2994 38.0699 0
rclavicle 6.74904e-15 -2.40025e-14 0
rhumerus -42.8402 -4.90342 -84.9318
rradius 40.3448 0 0
rwrist 10.0615 0 0
rhand -24.5635 -21.8451 0
rfingers 7.12502 0 0
rthumb 1.9332 -51.8121 0
8
root 6.18549 16.8552 -28.1155 9.19751 -2.39836 -2.93536
lfemur -20.2394 2.15409 -19.9317
ltibia 35.4342 0 0
lfoot -38.1618 3.99839 0
ltoes 38.6705 0 0
rfemur -18.7569 1.89683 19.5473
rtibia 34.6845 0 0
rfoot -29.7366 -12.423 0
rtoes 20.4247 0 0
lowerback -2.75851 3.42324 -4.28449
upperback -2.51967 4.66904 3.05205
thorax -1.67691 2.46301 5.59321
lowerneck -9.81328 -2.2223 2.02329
upperneck -1.63119 -3.14474 -1.27811
head 1.08428 -1.60174 -0.859993
lclavicle 1.20767e-14 -2.10785e-14 0
lhumerus -41.7195 -10.9853 99.1759
lradius 34.8464 0 0
lwrist 2.58537 0 0
lhand -10.7354 8.43383 0
lfingers 7.12502 0 0
lthumb 15.2754 37.8497 0
rclavicle 1.20767e-14 -2.10785e-14 0
rhumerus -42.7446 -4.9127 -85.0768
rradius 40.3165 0 0
rwrist 10.0986 0 0
rhand -24.7359 -21.7029 0
rfingers 7.12502 0 0
rthumb 1.76663 -51.6708 0
9
root 6.17726 16.858 -28.1124 9.23066 -2.37367 -2.91247
lfemur -20.2139 2.12607 -19.9195
ltibia 35.3404 0 0
lfoot -38.0691 4.01004 0
ltoes 38.6184 0 0
rfemur -18.6199 2.2168 19.5515
rtibia 34.4275 0 0
rfoot -29.6149 -12.7897 0
rtoes 20.2347 0 0
lowerback -2.89256 3.37658 -4.14238
upperback -2.4918 4.60577 2.96927
thorax -1.54679 2.42377 5.43684
lowerneck -9.80701 -2.19462 2.03708
upperneck -1.67873 -3.11053 -1.20756
head 1.06919 -1.58347 -0.838198
lclavicle 1.76025e-14 -1.80355e-14 0
lhumerus -41.7186 -11.017 99.0517
lradius 34.9073 0 0
lwrist 2.66142 0 0
lhand -10.7617 8.20193 0
lfingers 7.12502 0 0
lthumb 15.2501 37.6197 0
rclavicle 1.76025e-14 -1.80355e-14 0
rhumerus -42.6446 -4.92235 -85.2288
rradius 40.2867 0 0
rwrist 10.1374 0 0
rhand -24.9155 -21.5549 0
rfingers 7.12502 0 0
rthumb 1.59317 -51.5237 0
10
root 6.16902 16.8607 -28.1092 9.26504 -2.34799 -2.8886
lfemur -20.1879 2.09703 -19.907
ltibia 35.2437 0 0
lfoot -37.9729 4.02205 0
ltoes 38.5634 0 0
rfemur -18.4789 2.54607 19.5558
rtibia 34.1627 0 0
rfoot -29.4892 -13.1676 0
rtoes 20.0355 0 0
lowerback -3.03111 3.32831 -3.99504
upperback -2.46291 4.54027 2.88319
thorax -1.41221 2.38318 5.27439
lowerneck -9.80044 -2.16596 2.05165
upperneck -1.72801 -3.07514 -1.13418
head 1.05353 -1.56457 -0.81558
lclavicle 2.32462e-14 -1.49106e-14 0
lhumerus -41.7176 -11.0505 98.9233
lradius 34.9723 0 0
lwrist 2.7412 0 0
lhand -10.7891 7.96233 0
lfingers 7.12502 0 0
lthumb 15.2237 37.3822 0
rclavicle 2.32462e-14 -1.49106e-14 0
rhumerus -42.5412 -4.93227 -85.3865
rradius 40.2556 0 0
rwrist 10.1774 0 0
rhand -25.1001 -21.4029 0
rfingers 7.12502 0 0
rthumb 1.41489 -51.3726 0
